<?xml version="1.0" encoding="UTF-8"?>
<svg id="Layer_2" data-name="Layer 2" xmlns="http://www.w3.org/2000/svg" viewBox="0 0 838.47 826">
  <defs>
    <style>
      .cls-1 {
        fill: #fff;
      }
    </style>
  </defs>
  <path class="cls-1" d="M236.14,826h366.2c139.5,0,229.9-108.9,229.9-229.9V229.9C832.24,108.9,741.94,0,602.34,0H236.14C96.64,0,6.24,108.9,6.24,229.9v366.2c0,121,90.3,229.9,229.9,229.9h0Z"/>
  <g>
    <rect x="184.52" y="178.29" width="117.36" height="117.36"/>
    <rect x="301.88" y="178.29" width="117.36" height="117.36"/>
    <rect x="419.24" y="178.29" width="117.36" height="117.36"/>
    <rect x="419.24" y="295.64" width="117.36" height="117.36"/>
    <rect x="184.52" y="295.64" width="117.36" height="117.36"/>
    <rect x="184.52" y="413" width="117.36" height="117.36"/>
    <rect x="301.88" y="413" width="117.36" height="117.36"/>
    <rect x="184.52" y="530.36" width="117.36" height="117.36"/>
    <rect x="536.59" y="530.36" width="117.36" height="117.36"/>
    <rect x="536.59" y="413" width="117.36" height="117.36"/>
  </g>
</svg>