<?xml version="1.0" encoding="UTF-8"?>
<svg id="Layer_2" data-name="Layer 2" xmlns="http://www.w3.org/2000/svg" viewBox="0 0 826 826">
  <defs>
    <style>
      .cls-1 {
        fill: #fff;
      }
    </style>
  </defs>
  <path d="M229.9,826h366.2c139.5,0,229.9-108.9,229.9-229.9V229.9C826,108.9,735.7,0,596.1,0H229.9C90.4,0,0,108.9,0,229.9v366.2c0,121,90.3,229.9,229.9,229.9h0Z"/>
  <g>
    <rect class="cls-1" x="178.29" y="178.29" width="117.36" height="117.36"/>
    <rect class="cls-1" x="295.64" y="178.29" width="117.36" height="117.36"/>
    <rect class="cls-1" x="413" y="178.29" width="117.36" height="117.36"/>
    <rect class="cls-1" x="413" y="295.64" width="117.36" height="117.36"/>
    <rect class="cls-1" x="178.29" y="295.64" width="117.36" height="117.36"/>
    <rect class="cls-1" x="178.29" y="413" width="117.36" height="117.36"/>
    <rect class="cls-1" x="295.64" y="413" width="117.36" height="117.36"/>
    <rect class="cls-1" x="178.29" y="530.36" width="117.36" height="117.36"/>
    <rect class="cls-1" x="530.36" y="530.36" width="117.36" height="117.36"/>
    <rect class="cls-1" x="530.36" y="413" width="117.36" height="117.36"/>
  </g>
</svg>